<svg xmlns="http://www.w3.org/2000/svg" width="256" height="256" viewBox="0 0 100 100"><rect width="100" height="100" rx="20" fill="#e76e6e"></rect><path fill="#9c0000" d="M12.93 62.84L12.93 61.24L14.44 61.33L14.52 61.33Q15.26 61.33 15.26 60.38L15.26 60.38L15.26 39.57Q15.26 39.19 15.04 38.91Q14.83 38.63 14.44 38.67L14.44 38.67L12.93 38.76L12.93 37.16L23.55 37.16L23.55 38.76L22.05 38.67L21.96 38.67Q21.62 38.67 21.41 38.93Q21.19 39.19 21.19 39.57L21.19 39.57L21.19 60.38Q21.19 61.42 22.05 61.33L22.05 61.33L23.55 61.24L23.55 62.84L12.93 62.84ZM26.91 62.84L26.91 61.24L28.41 61.33L28.50 61.33Q29.23 61.33 29.23 60.38L29.23 60.38L29.23 39.57Q29.23 39.19 29.02 38.91Q28.80 38.63 28.41 38.67L28.41 38.67L26.91 38.76L26.91 37.16L37.53 37.16L37.53 38.76L36.02 38.67L35.94 38.67Q35.59 38.67 35.38 38.93Q35.16 39.19 35.16 39.57L35.16 39.57L35.16 60.38Q35.16 61.42 36.02 61.33L36.02 61.33L37.53 61.24L37.53 62.84L26.91 62.84ZM65.14 61.37Q65.87 61.37 66.43 61.24L66.43 61.24L66.43 62.84L54.17 62.84L54.17 61.24L56.02 61.37L56.15 61.37Q56.88 61.37 56.88 60.90L56.88 60.90Q56.88 60.60 56.67 60.30L56.67 60.30L50.69 51.40L49.14 53.20L49.14 60.38Q49.14 61.42 50 61.33L50 61.33L51.94 61.24L51.94 62.84L40.88 62.84L40.88 61.24L42.39 61.33L42.48 61.33Q43.21 61.33 43.21 60.38L43.21 60.38L43.21 39.57Q43.21 39.14 42.99 38.88Q42.78 38.63 42.39 38.67L42.39 38.67L40.88 38.76L40.88 37.16L52.11 37.16L52.11 38.76L50 38.67Q49.14 38.67 49.14 39.62L49.14 39.62L49.14 50.88L58.13 40.22Q58.86 39.36 58.86 39.06L58.86 39.06Q58.86 38.67 58.43 38.67L58.43 38.67L56.88 38.76L56.88 37.16L64.62 37.16L64.62 38.76L63.16 38.67Q62.47 38.63 61.91 38.88Q61.35 39.14 60.66 39.92L60.66 39.92L54.69 46.84L64.10 60.77Q64.49 61.37 65.14 61.37L65.14 61.37ZM68.45 54.24L69.82 54.11Q70.25 57.85 72.25 59.78Q74.25 61.72 77.22 61.72L77.22 61.72Q79.41 61.72 80.68 60.51Q81.95 59.31 81.95 57.33L81.95 57.33Q81.95 54.32 77.86 52.73L77.86 52.73L73.65 50.97Q68.75 48.95 68.75 44.30L68.75 44.30Q68.75 42.24 69.74 40.52Q70.73 38.80 72.70 37.77Q74.68 36.73 77.52 36.73L77.52 36.73Q78.94 36.73 79.93 36.95Q80.92 37.16 81.91 37.51Q82.89 37.85 83.33 37.98L83.33 37.98Q84.06 38.24 84.61 38.24L84.61 38.24Q85.35 38.24 85.82 38.07L85.82 38.07Q85.69 39.10 85.69 41.34L85.69 41.34Q85.69 42.58 85.73 43.14Q85.78 43.70 85.95 44.17L85.95 44.17L84.49 44.17Q84.49 41.51 82.66 39.85Q80.83 38.20 78.21 38.20L78.21 38.20Q76.14 38.20 74.81 39.27Q73.48 40.35 73.48 42.07L73.48 42.07Q73.48 43.27 74.36 44.24Q75.24 45.21 77.18 45.98L77.18 45.98L80.83 47.53Q84.19 48.99 85.63 50.64Q87.07 52.30 87.07 55.01L87.07 55.01Q87.07 57.33 85.99 59.20Q84.92 61.07 82.81 62.17Q80.70 63.27 77.69 63.27L77.69 63.27Q75.80 63.27 73.61 62.71L73.61 62.71Q71.16 62.06 70.25 62.06L70.25 62.06Q69.87 62.06 69.33 62.13Q68.79 62.19 68.62 62.28L68.62 62.28Q68.79 61.37 68.79 58.97L68.79 58.97Q68.79 57.25 68.70 55.78Q68.62 54.32 68.45 54.24L68.45 54.24Z"></path></svg>